{"title":"Monsters.2010.LiMiTED.720p.BRRip.x264.Feel-Free","uid":6126860,"size":1799812757,"categoryP":"video","categoryS":"hd___movies","magnet":"?xt=urn:btih:a25aafd9adf70f73c54d97a1a98b714de6c9d6e1&amp;dn=Monsters.2010.LiMiTED.720p.BRRip.x264.Feel-Free&amp;tr=udp%3A%2F%2Ftracker.openbittorrent.com%3A80&amp;tr=udp%3A%2F%2Fopen.demonii.com%3A1337&amp;tr=udp%3A%2F%2Ftracker.coppersurfer.tk%3A6969&amp;tr=udp%3A%2F%2Fexodus.desync.com%3A6969","seeders":0,"leechers":0,"uploader":"neon","files":-1,"time":1295971861,"description":"Language: English\nGenre:Drama | Sci-Fi | Thriller\n &lt;a href=&quot; http://www.imdb.com/title/tt1470827/&quot; rel=&quot;nofollow&quot; target=&quot;_NEW&quot;&gt; http://www.imdb.com/title/tt1470827/&lt;/a&gt;\nSource:BluRay.x264-SiNNERS\nSubtitles:Romana\n\n\nFormat : MPEG-4\nFormat profile : Base Media\nCodec ID : isom\nFile size : 1.67 GiB\nDuration : 1h 33mn\nOverall bit rate : 2 546 Kbps\nMovie name : Monsters.2010.LiMiTED.720p.BRRip.x264.Feel-Free\n\n\nVideo\nFormat settings, CABAC : Yes\nFormat settings, ReFrames : 4 frames\nFormat settings, GOP : M=1, N=16\nCodec ID : avc1\nCodec ID/Info : Advanced Video Coding\nDuration : 1h 33mn\nBit rate mode : Variable\nBit rate : 2 200 Kbps\nWidth : 1 280 pixels\nHeight : 544 pixels\nDisplay aspect ratio : 2.35:1\nFrame rate mode : Constant\nFrame rate : 23.976 fps\nColor space : YUV\nChroma subsampling : 4:2:0\nBit depth : 8 bits\nScan type : Progressive\nBits/(Pixel*Frame) : 0.132\nStream size : 1.42 GiB (85%)\n\nAudio\nID : 2\nFormat : AAC\nFormat/Info : Advanced Audio Codec\nFormat version : Version 4\nFormat profile : LC\nCodec ID : 40\nDuration : 1h 33mn\nBit rate mode : Variable\nBit rate : 384 Kbps\nChannel(s) : 6 channels\nChannel positions : Front: L C R, Side: L R, LFE\nSampling rate : 48.0 KHz\nStream size : 258 MiB (15%)\n\n\nPlot:\nSix years after Earth has suffered an alien invasion a cynical journalist agrees to escort a shaken American tourist through an infected zone in Mexico to the safety of the US border\n\n","torrent":{"xt":"urn:btih:a25aafd9adf70f73c54d97a1a98b714de6c9d6e1","amp;dn":"Monsters.2010.LiMiTED.720p.BRRip.x264.Feel-Free","amp;tr":["udp%3A%2F%2Ftracker.openbittorrent.com%3A80","udp%3A%2F%2Fopen.demonii.com%3A1337","udp%3A%2F%2Ftracker.coppersurfer.tk%3A6969","udp%3A%2F%2Fexodus.desync.com%3A6969"],"infoHash":"a25aafd9adf70f73c54d97a1a98b714de6c9d6e1","infoHashBuffer":{"type":"Buffer","data":[162,90,175,217,173,247,15,115,197,77,151,161,169,139,113,77,230,201,214,225]},"announce":[],"urlList":[]}}